<?xml version="1.0" encoding="utf-8"?><svg xmlns="http://www.w3.org/2000/svg" xmlns:xlink="http://www.w3.org/1999/xlink"><symbol viewBox="0 0 13 8" id="arrow-breadcrumbs" xmlns="http://www.w3.org/2000/svg"><path d="m8.701 1.3 2.7 2.7-2.7 2.7M0 4h11.4"/></symbol><symbol viewBox="0 0 256 512" id="chevron-left" xmlns="http://www.w3.org/2000/svg"><path d="m231.293 473.899 19.799-19.799c4.686-4.686 4.686-12.284 0-16.971L70.393 256 251.092 74.87c4.686-4.686 4.686-12.284 0-16.971L231.293 38.1c-4.686-4.686-12.284-4.686-16.971 0L4.908 247.515c-4.686 4.686-4.686 12.284 0 16.971L214.322 473.9c4.687 4.686 12.285 4.686 16.971-.001z"/></symbol><symbol viewBox="0 0 256 512" id="chevron-right" xmlns="http://www.w3.org/2000/svg"><path d="M24.707 38.101 4.908 57.899c-4.686 4.686-4.686 12.284 0 16.971L185.607 256 4.908 437.13c-4.686 4.686-4.686 12.284 0 16.971L24.707 473.9c4.686 4.686 12.284 4.686 16.971 0l209.414-209.414c4.686-4.686 4.686-12.284 0-16.971L41.678 38.101c-4.687-4.687-12.285-4.687-16.971 0z"/></symbol><symbol viewBox="0 0 448 512" id="chevron-up" xmlns="http://www.w3.org/2000/svg"><path d="M6.101 359.293 25.9 379.092c4.686 4.686 12.284 4.686 16.971 0L224 198.393l181.13 180.698c4.686 4.686 12.284 4.686 16.971 0l19.799-19.799c4.686-4.686 4.686-12.284 0-16.971L232.485 132.908c-4.686-4.686-12.284-4.686-16.971 0L6.101 342.322c-4.687 4.687-4.687 12.285 0 16.971z"/></symbol><symbol viewBox="0 0 20 16" id="icon-email" xmlns="http://www.w3.org/2000/svg"><path d="M1 0h18c.265 0 .52.094.707.26A.842.842 0 0 1 20 .89v14.22a.842.842 0 0 1-.293.629 1.07 1.07 0 0 1-.707.26H1a1.07 1.07 0 0 1-.707-.26A.842.842 0 0 1 0 15.11V.89C0 .653.105.427.293.26A1.07 1.07 0 0 1 1 0Zm17 3.767-7.928 6.311L2 3.748v10.474h16V3.767ZM2.511 1.777l7.55 5.923 7.441-5.922H2.511Z"/></symbol><symbol viewBox="0 0 16 16" id="icon-phone" xmlns="http://www.w3.org/2000/svg"><path d="M5.805 6.902a8.797 8.797 0 0 0 3.293 3.293l.737-1.032a.833.833 0 0 1 1.078-.246 9.518 9.518 0 0 0 3.82 1.136.834.834 0 0 1 .767.831v3.718a.834.834 0 0 1-.748.83c-.442.045-.887.068-1.335.068C6.283 15.5.5 9.717.5 2.583c0-.448.022-.893.068-1.335A.833.833 0 0 1 1.398.5h3.718a.833.833 0 0 1 .83.768 9.518 9.518 0 0 0 1.137 3.819.833.833 0 0 1-.246 1.078l-1.032.737Zm-2.102-.548 1.584-1.13c-.45-.97-.758-2-.915-3.057H2.175c-.005.138-.007.277-.007.416-.001 6.214 5.035 11.25 11.249 11.25.139 0 .278-.002.416-.008v-2.197a11.175 11.175 0 0 1-3.056-.915l-1.131 1.584a10.374 10.374 0 0 1-1.324-.625l-.048-.028a10.464 10.464 0 0 1-3.918-3.918l-.028-.048a10.37 10.37 0 0 1-.625-1.324Z"/></symbol></svg>